<?xml version="1.0" standalone="no"?>
<svg xmlns:xlink="http://www.w3.org/1999/xlink" xmlns="http://www.w3.org/2000/svg" viewBox="0 0 24 24" height="128" width="128">
<g fill="#fff" style="">
<path fill="none" d="M0 0h24v24H0z"/>
<path d="M12 13.414l-2.554 2.554a4 4 0 1 1-1.414-1.414L10.586 12 4.565 5.98a2 2 0 0 1 0-2.83L12 10.587l7.435-7.435a2 2 0 0 1 0 2.828L13.415 12l2.553 2.554a4 4 0 1 1-1.414 1.414L12 13.414zM6 20a2 2 0 1 0 0-4 2 2 0 0 0 0 4zm12 0a2 2 0 1 0 0-4 2 2 0 0 0 0 4z" fill="#fff" style=""/>
</g>
</svg>